<?xml version="1.0" encoding="utf-8"?>
<!-- Generator: Adobe Illustrator 28.0.0, SVG Export Plug-In . SVG Version: 6.00 Build 0)  -->
<svg version="1.1" id="Layer_1" xmlns="http://www.w3.org/2000/svg" xmlns:xlink="http://www.w3.org/1999/xlink" x="0px" y="0px"
	 viewBox="0 0 1495.15 261.45" style="enable-background:new 0 0 1495.15 261.45;" xml:space="preserve">
<style type="text/css">
	.st0{fill:#1279BE;}
	.st1{fill:#FBB216;}
</style>
<g>
	<g>
		<g>
			<rect x="1266.66" y="16.57" class="st0" width="204.49" height="52.26"/>
			<polygon class="st0" points="1395.04,101.85 1395.04,233.28 1342.78,233.28 1342.78,77.07 			"/>
		</g>
		<g>
			<polygon class="st0" points="444.33,177.04 402.4,182.37 402.21,182.84 388.45,217.7 386.08,223.67 382.87,231.8 369.21,232.04 
				326.31,232.8 330.98,220.95 332.17,217.93 363.04,139.96 363.63,138.46 393.78,65.83 408.63,73.63 402.83,88.63 381.35,144.08 
							"/>
			<g>
				<polygon class="st0" points="542.44,233.28 516.41,232.8 485.85,232.25 436.97,111.73 413.16,53.05 405.2,33.48 398.34,16.57 
					457.03,16.57 539.46,225.7 				"/>
			</g>
		</g>
		<g>
			<polygon class="st0" points="1067.36,177.04 1025.42,182.37 1025.24,182.84 1011.47,217.7 1009.11,223.67 1005.9,231.8 
				992.23,232.04 949.33,232.8 954,220.95 955.2,217.93 986.06,139.96 986.66,138.46 1016.8,65.83 1031.66,73.63 1025.86,88.63 
				1004.37,144.08 			"/>
			<g>
				<polygon class="st0" points="1165.46,233.28 1139.44,232.8 1108.88,232.25 1059.99,111.73 1036.19,53.05 1028.22,33.48 
					1021.37,16.57 1080.05,16.57 1162.48,225.7 				"/>
			</g>
		</g>
		<g>
			<path class="st0" d="M771.2,124.91v0.01c0,13.95-11.32,25.26-25.27,25.26c-13.95,0-25.27-11.31-25.27-25.26v-0.01
				c0-6.84,2.72-13.03,7.14-17.57c4.59-4.75,11.03-7.69,18.14-7.69c7.11,0,13.54,2.94,18.14,7.69
				C768.48,111.89,771.2,118.07,771.2,124.91z"/>
			<g>
				<path class="st1" d="M834.14,62.41l-28.65,28.65c-2.97-5.22-6.68-10.12-11.13-14.57c-4.45-4.45-9.35-8.16-14.57-11.13
					l28.65-28.65c4.89,3.46,9.54,7.39,13.93,11.77C826.75,52.87,830.68,57.52,834.14,62.41z"/>
				<path class="st1" d="M764.09,58.86c-6.29-1.71-12.77-2.53-19.24-2.42c-5.77,0.09-11.52,0.89-17.11,2.43V18.34
					c5.91-1.02,11.97-1.53,18.17-1.53c6.2,0,12.27,0.52,18.18,1.52L764.09,58.86z"/>
				<path class="st1" d="M852.47,143.09L812,143.09c1.52-5.58,2.32-11.33,2.41-17.09c0.11-6.47-0.7-12.97-2.43-19.26l40.49,0.01
					c1.01,5.9,1.52,11.97,1.52,18.17S853.47,137.18,852.47,143.09z"/>
				<path class="st1" d="M712.05,65.35c-5.66,3.23-10.81,7.24-15.31,11.89c-4.02,4.15-7.51,8.78-10.38,13.81L657.7,62.4
					c3.46-4.9,7.38-9.55,11.76-13.93c4.38-4.38,9.05-8.31,13.93-11.77L712.05,65.35z"/>
				<path class="st1" d="M679.84,106.75c-1.72,6.29-2.53,12.77-2.42,19.24c0.09,5.77,0.89,11.52,2.43,17.11l-40.53,0
					c-1.02-5.91-1.53-11.97-1.53-18.17c0-6.2,0.52-12.27,1.52-18.18L679.84,106.75z"/>
			</g>
			<path class="st0" d="M849.57,228.05l-5.52-0.32l-60.83-1.7l-10.76,3.73c-8.57,2.19-17.3,3.28-26.55,3.28
				c-7.5,0-14.83-0.77-21.9-2.22c-18.92-3.9-36.03-12.72-49.94-25.1c-0.11-0.11-0.23-0.21-0.34-0.32
				c-4.37-3.9-8.44-8.18-12.21-12.89c-3.88-4.86-7.27-9.91-10.18-15.15l0.04-0.04c-0.7-1.28-1.38-2.58-2.05-3.88l32.64-24.01
				c2.34,6.07,5.54,11.78,9.46,16.92c3.49,4.6,7.52,8.74,12.06,12.36c0.72,0.58,1.43,1.13,2.19,1.68
				c11.29,8.2,25.21,13.06,40.23,13.06c16.24,0,31.15-5.65,42.89-15.08l-0.02-0.02c5.07-4.09,9.55-8.84,13.23-14.17
				c3.3-4.73,6.03-9.84,8.08-15.28l0.04,0.04l32.79,23.71c-2.64,5.37-5.77,10.59-9.42,15.62c-1.32,1.83-2.68,3.62-4.11,5.35
				c-0.09,0.11-0.17,0.21-0.26,0.32c-0.38,0.47-0.79,0.94-1.19,1.41c-2.02,2.36-4.13,4.6-6.33,6.75c-0.09,0.09-0.17,0.19-0.28,0.28
				L849.57,228.05z"/>
		</g>
		<g>
			<rect x="20.61" y="16.57" class="st0" width="204.49" height="52.26"/>
			<polygon class="st0" points="148.99,101.85 148.99,233.28 96.73,233.28 96.73,77.07 			"/>
		</g>
	</g>
</g>
</svg>
